<svg xmlns:xlink="http://www.w3.org/1999/xlink" xmlns="http://www.w3.org/2000/svg" viewBox="0 0 256 256" focusable="false" color="var(--token-e4afc467-63a1-453b-a567-b51406c562ec, rgb(28, 28, 28))" style="user-select: none; width: 100%; height: 100%; display: inline-block; fill: var(--token-e4afc467-63a1-453b-a567-b51406c562ec, rgb(28, 28, 28)); color: var(--token-e4afc467-63a1-453b-a567-b51406c562ec, rgb(28, 28, 28)); flex-shrink: 0;" width="256"  height="256" ><g color="var(--token-e4afc467-63a1-453b-a567-b51406c562ec, rgb(28, 28, 28))" weight="bold" fill="#1C1C1C"><path d="M224,44H160a43.86,43.86,0,0,0-32,13.85A43.86,43.86,0,0,0,96,44H32A20,20,0,0,0,12,64V192a20,20,0,0,0,20,20H96a20,20,0,0,1,20,20,12,12,0,0,0,24,0,20,20,0,0,1,20-20h64a20,20,0,0,0,20-20V64A20,20,0,0,0,224,44ZM96,188H36V68H96a20,20,0,0,1,20,20V192.81A43.79,43.79,0,0,0,96,188Zm124,0H160a43.71,43.71,0,0,0-20,4.83V88a20,20,0,0,1,20-20h60Z" fill="#1C1C1C"></path></g></svg>