<svg xmlns:xlink="http://www.w3.org/1999/xlink" xmlns="http://www.w3.org/2000/svg" viewBox="0 0 256 256" focusable="false" color="var(--token-e4afc467-63a1-453b-a567-b51406c562ec, rgb(28, 28, 28))" style="user-select: none; width: 100%; height: 100%; display: inline-block; fill: var(--token-e4afc467-63a1-453b-a567-b51406c562ec, rgb(28, 28, 28)); color: var(--token-e4afc467-63a1-453b-a567-b51406c562ec, rgb(28, 28, 28)); flex-shrink: 0;" width="256"  height="256" ><g color="var(--token-e4afc467-63a1-453b-a567-b51406c562ec, rgb(28, 28, 28))" weight="bold" fill="#1C1C1C"><path d="M24,108H44v48H32a12,12,0,0,0,0,24H224a12,12,0,0,0,0-24H212V108h20a12,12,0,0,0,6.29-22.22l-104-64a12,12,0,0,0-12.58,0l-104,64A12,12,0,0,0,24,108Zm44,0H92v48H68Zm72,0v48H116V108Zm48,48H164V108h24ZM128,46.09,189.6,84H66.4ZM252,208a12,12,0,0,1-12,12H16a12,12,0,0,1,0-24H240A12,12,0,0,1,252,208Z" fill="#1C1C1C"></path></g></svg>